<?xml version="1.0" encoding="UTF-8"?>
<!DOCTYPE svg PUBLIC "-//W3C//DTD SVG 1.1//EN" "http://www.w3.org/Graphics/SVG/1.1/DTD/svg11.dtd">
<!-- Creator: CorelDRAW 2021 (64-Bit) -->
<svg xmlns="http://www.w3.org/2000/svg" xml:space="preserve" width="105.823mm" height="105.823mm" version="1.1" style="shape-rendering:geometricPrecision; text-rendering:geometricPrecision; image-rendering:optimizeQuality; fill-rule:evenodd; clip-rule:evenodd"
viewBox="0 0 10582.3 10582.28"
 xmlns:xlink="http://www.w3.org/1999/xlink"
 xmlns:xodm="http://www.corel.com/coreldraw/odm/2003">
 <defs>
  <style type="text/css">
   <![CDATA[
    .str0 {stroke:#CCCCCC;stroke-width:20;stroke-linecap:round;stroke-linejoin:round;stroke-miterlimit:22.9256}
    .fil0 {fill:#CCCCCC}
   ]]>
  </style>
 </defs>
 <g id="Layer_x0020_1">
  <metadata id="CorelCorpID_0Corel-Layer"/>
  <g id="_2552969562432">
   <path class="fil0" d="M3107.44 4738.72c30.87,-134.68 80.79,-273.07 161.59,-433.78 125.38,-249.37 242.2,-409.48 427.99,-595.27 318.87,-318.87 817.97,-599.76 1303.7,-635.64 -60.95,-96.97 -96.24,-211.71 -96.24,-334.71 0,-347.88 282.01,-629.88 629.88,-629.88 295.41,0 543.29,203.38 611.34,477.75 1489.49,12.03 2292.96,1041.44 2416.86,1587.97 39.76,78.29 100.69,114.98 249.75,112.74l135.15 0.26c-109.09,-94.11 -127,-247.11 -207.81,-449.23 -51.99,-130.04 -163.46,-290.58 -158,-432.96 5.02,-130.67 239.68,-461.87 325.18,-603.78 438.3,-727.48 469.73,-497.92 -93.53,-1061.17 -544.4,-544.4 -360.67,-500.47 -843.92,-209.96 -135.43,81.42 -248.81,151.12 -386.84,236.03 -508.69,312.95 -382.72,236.04 -841.65,44.31 -453.49,-189.45 -477.23,-80.38 -600.23,-623.22 -40.47,-178.61 -77.55,-312.14 -115.23,-485.37 -35.69,-163.99 -62.96,-435.5 -187.36,-435.5l-1089.99 0c-166.41,0 -165.88,215.82 -240.43,515.88 -187.61,755.12 -83.31,802.74 -552.18,960.46 -235.09,79.08 -418.03,214.25 -564.31,214.25 -134.66,0 -480.76,-232.15 -600.6,-311.42 -648.08,-428.74 -597.7,-392.38 -839.74,-150.15 -836.09,836.73 -751.97,549.97 -321.18,1266.57 279.1,464.26 421.27,527.16 226.64,907.85 -374.15,731.84 57.21,548.86 -1063.49,827.3 -92.79,23.05 -194.04,52.3 -303.05,75.11 -99.6,20.84 -235.08,37.25 -235.08,143.08l0 1112.24c0,128.53 309.51,160.66 520.54,213.52 1144.16,286.59 706.94,96.89 1073.54,817.27 195.27,383.7 79.46,413.23 -215.92,903.48 -446.5,741.08 -533.35,434.02 329.12,1296.76 284.44,284.53 154.71,237.4 827.34,-162.54 802.84,-477.39 460.2,-339.02 1149.43,-101.39 462.05,159.31 354.2,191.16 546.69,965.95 23.05,92.78 52.31,194.04 75.11,303.04 20.84,99.61 37.25,235.08 143.09,235.08l1112.23 0c128.84,0 167.66,-334.71 218.2,-538.12 53.11,-213.75 93.85,-397.62 142.88,-613.44 77.36,-340.57 280.48,-268.41 669.76,-464.72 306.86,-154.75 254.82,-178.18 602.05,50.13 102.02,67.08 184,114 289.8,177.34 757.26,453.36 456.99,532.8 1297.22,-307.35 227.35,-227.31 271.78,-180.03 36.84,-537.33 -127.19,-193.43 -498.41,-745.76 -498.41,-925.25 0,-142.53 127.64,-322.35 202.8,-531.27 26.95,-74.89 65.91,-203.46 113.97,-264.2 48.28,-61.03 138.93,-104.9 250.09,-140.33l-328.72 0.61c-149.06,-2.19 -209.99,33.65 -249.75,110.14 -123.75,533.22 -925.34,1536.97 -2411.2,1551.23 -58.89,286.82 -312.76,502.53 -617,502.53 -347.87,0 -629.88,-282 -629.88,-629.88 0,-99.62 23.16,-193.82 64.34,-277.56 -219.23,-19.54 -419.28,-69.81 -676.52,-199.14 -589.44,-296.34 -1088.95,-896.06 -1207.89,-1544.79 -135.97,-115.64 -222.24,-287.94 -222.24,-480.42 0,-203.14 96.09,-383.8 245.27,-499.11zm2878.74 -1560.59c117.18,43.41 243.72,104.04 400.49,188.71 558.56,301.65 1075.27,1077.68 1075.27,1749.81l0 4.83 2828.24 0c-1.79,-111.76 -3.17,-238.67 -3.17,-383 0,-66.02 -77.26,-106.76 -168.73,-135.01l-1460.27 -2.6c-244.54,8.84 -340.42,-175.97 -372.14,-280.32 -257.7,-799.39 -1308.08,-1547.05 -2134.65,-1453.25 -24.67,119.46 -83.17,226.55 -165.04,310.83zm160.83 4414.84c827.22,94.6 1880.72,-636.89 2138.86,-1419.14 31.72,-101.95 127.6,-282.49 372.14,-273.86l1600.02 -2.77c45.17,-79.41 42.92,-229.47 36.44,-547.84l-2833.45 0c-4.81,320.22 -34.35,529.41 -214.1,886.95 -185.2,368.38 -370.56,585.21 -700.14,834.75 -131.44,99.52 -318.87,199.81 -520.34,275.51 56.92,71.14 98.73,154.89 120.57,246.4z"/>
   <path class="fil0" d="M2983.48 5609.65c149.59,997.58 950.96,1795.8 1950.04,1940.55 80.45,-255.25 319.02,-440.34 600.84,-440.34 231.79,0 434.3,125.22 543.67,311.69 840.87,-323.9 1450.09,-1129.82 1481.7,-2072.19l-3446.46 0c-52.65,295 -310.5,518.94 -620.63,518.94 -209.14,0 -394.47,-101.86 -509.16,-258.65zm1128.87 -488.17l3443.69 0c-60.91,-923.19 -676.05,-1704.61 -1512.47,-2011.42 -114.54,157.06 -299.94,259.14 -509.21,259.14 -258.33,0 -480.3,-155.54 -577.47,-378.06 -981.03,131.37 -1774.98,890.88 -1958.56,1855.34 115.49,-145.67 293.98,-239.12 494.31,-239.12 308.44,0 565.11,221.51 619.71,514.12z"/>
   <circle class="fil0 str0" cx="3492.64" cy="5237.83" r="281.25"/>
   <circle class="fil0 str0" cx="5534.36" cy="2721.52" r="281.13"/>
   <circle class="fil0 str0" cx="5534.36" cy="7721.95" r="281.13"/>
  </g>
 </g>
</svg>
